<svg width="190" height="40" viewBox="0 0 190 40" fill="none" xmlns="http://www.w3.org/2000/svg">
<path fill-rule="evenodd" clip-rule="evenodd" d="M20 0C8.95431 0 0 8.95431 0 20C0 31.0457 8.95431 40 20 40C20.3353 40 20.6687 39.9917 21 39.9754V40H40V20C40 8.95431 31.0457 0 20 0Z" fill="#FF5921"/>
<path d="M63.11 21.676C63.2967 22.0307 63.474 22.3993 63.642 22.782C63.8193 23.1647 63.9873 23.5567 64.146 23.958C64.3047 23.5473 64.4727 23.1507 64.65 22.768C64.8273 22.376 65.0093 21.998 65.196 21.634L70.432 11.33C70.5253 11.1527 70.6187 11.0173 70.712 10.924C70.8147 10.8213 70.9267 10.7467 71.048 10.7C71.1693 10.6533 71.3047 10.6253 71.454 10.616C71.6127 10.6067 71.7947 10.602 72 10.602H75.612V31H71.44V19.268C71.44 18.6987 71.468 18.0827 71.524 17.42L66.12 27.906C65.952 28.2327 65.7233 28.48 65.434 28.648C65.154 28.816 64.832 28.9 64.468 28.9H63.824C63.46 28.9 63.1333 28.816 62.844 28.648C62.564 28.48 62.34 28.2327 62.172 27.906L56.74 17.406C56.7773 17.7327 56.8053 18.0593 56.824 18.386C56.8427 18.7033 56.852 18.9973 56.852 19.268V31H52.68V10.602H56.292C56.4973 10.602 56.6747 10.6067 56.824 10.616C56.9827 10.6253 57.1227 10.6533 57.244 10.7C57.3653 10.7467 57.4727 10.8213 57.566 10.924C57.6687 11.0173 57.7667 11.1527 57.86 11.33L63.11 21.676ZM85.4527 16.258C86.554 16.258 87.5574 16.4307 88.4627 16.776C89.368 17.1213 90.1427 17.616 90.7867 18.26C91.44 18.904 91.944 19.688 92.2987 20.612C92.6627 21.5267 92.8447 22.558 92.8447 23.706C92.8447 24.8633 92.6627 25.9087 92.2987 26.842C91.944 27.766 91.44 28.5547 90.7867 29.208C90.1427 29.852 89.368 30.3513 88.4627 30.706C87.5574 31.0513 86.554 31.224 85.4527 31.224C84.342 31.224 83.3294 31.0513 82.4147 30.706C81.5094 30.3513 80.7254 29.852 80.0627 29.208C79.4094 28.5547 78.9007 27.766 78.5367 26.842C78.182 25.9087 78.0047 24.8633 78.0047 23.706C78.0047 22.558 78.182 21.5267 78.5367 20.612C78.9007 19.688 79.4094 18.904 80.0627 18.26C80.7254 17.616 81.5094 17.1213 82.4147 16.776C83.3294 16.4307 84.342 16.258 85.4527 16.258ZM85.4527 28.004C86.4514 28.004 87.184 27.654 87.6507 26.954C88.1267 26.2447 88.3647 25.1713 88.3647 23.734C88.3647 22.2967 88.1267 21.228 87.6507 20.528C87.184 19.828 86.4514 19.478 85.4527 19.478C84.426 19.478 83.6747 19.828 83.1987 20.528C82.7227 21.228 82.4847 22.2967 82.4847 23.734C82.4847 25.1713 82.7227 26.2447 83.1987 26.954C83.6747 27.654 84.426 28.004 85.4527 28.004ZM95.2269 31V10.042H99.5669V17.756C100.09 17.308 100.654 16.9487 101.261 16.678C101.877 16.398 102.61 16.258 103.459 16.258C104.252 16.258 104.952 16.398 105.559 16.678C106.175 16.9487 106.693 17.3313 107.113 17.826C107.533 18.3113 107.85 18.8947 108.065 19.576C108.28 20.248 108.387 20.9807 108.387 21.774V31H104.047V21.774C104.047 21.0647 103.884 20.514 103.557 20.122C103.23 19.7207 102.75 19.52 102.115 19.52C101.639 19.52 101.191 19.6227 100.771 19.828C100.351 20.0333 99.9495 20.3087 99.5669 20.654V31H95.2269ZM111.469 31V16.482H114.045C114.26 16.482 114.437 16.5007 114.577 16.538C114.726 16.5753 114.848 16.636 114.941 16.72C115.044 16.7947 115.118 16.8973 115.165 17.028C115.221 17.1587 115.268 17.3173 115.305 17.504L115.543 18.862C116.075 18.0407 116.672 17.392 117.335 16.916C117.998 16.44 118.721 16.202 119.505 16.202C120.168 16.202 120.7 16.3607 121.101 16.678L120.541 19.87C120.504 20.066 120.429 20.206 120.317 20.29C120.205 20.3647 120.056 20.402 119.869 20.402C119.71 20.402 119.524 20.3833 119.309 20.346C119.094 20.2993 118.824 20.276 118.497 20.276C117.358 20.276 116.462 20.8827 115.809 22.096V31H111.469ZM132.786 31C132.375 31 132.063 30.944 131.848 30.832C131.643 30.72 131.47 30.4867 131.33 30.132L131.022 29.334C130.658 29.642 130.308 29.9127 129.972 30.146C129.636 30.3793 129.286 30.58 128.922 30.748C128.567 30.9067 128.185 31.0233 127.774 31.098C127.373 31.182 126.925 31.224 126.43 31.224C125.767 31.224 125.165 31.14 124.624 30.972C124.083 30.7947 123.621 30.538 123.238 30.202C122.865 29.866 122.575 29.4507 122.37 28.956C122.165 28.452 122.062 27.8733 122.062 27.22C122.062 26.7067 122.193 26.1793 122.454 25.638C122.715 25.0967 123.168 24.6067 123.812 24.168C124.456 23.72 125.324 23.3467 126.416 23.048C127.508 22.7493 128.885 22.5813 130.546 22.544V21.928C130.546 21.0787 130.369 20.4673 130.014 20.094C129.669 19.7113 129.174 19.52 128.53 19.52C128.017 19.52 127.597 19.576 127.27 19.688C126.943 19.8 126.649 19.926 126.388 20.066C126.136 20.206 125.889 20.332 125.646 20.444C125.403 20.556 125.114 20.612 124.778 20.612C124.479 20.612 124.223 20.542 124.008 20.402C123.803 20.2527 123.639 20.0707 123.518 19.856L122.734 18.498C123.611 17.7233 124.582 17.1493 125.646 16.776C126.719 16.3933 127.867 16.202 129.09 16.202C129.967 16.202 130.756 16.3467 131.456 16.636C132.165 16.916 132.763 17.3127 133.248 17.826C133.743 18.33 134.121 18.932 134.382 19.632C134.643 20.332 134.774 21.0973 134.774 21.928V31H132.786ZM127.802 28.354C128.362 28.354 128.852 28.256 129.272 28.06C129.692 27.864 130.117 27.5467 130.546 27.108V25.092C129.678 25.1293 128.964 25.204 128.404 25.316C127.844 25.428 127.401 25.568 127.074 25.736C126.747 25.904 126.519 26.0953 126.388 26.31C126.267 26.5247 126.206 26.758 126.206 27.01C126.206 27.5047 126.341 27.8547 126.612 28.06C126.883 28.256 127.279 28.354 127.802 28.354ZM159.44 31H158.334C158.203 31 158.096 30.9673 158.012 30.902C157.928 30.8273 157.863 30.734 157.816 30.622L155.478 24.868H145.748L143.424 30.622C143.387 30.7247 143.321 30.8133 143.228 30.888C143.135 30.9627 143.023 31 142.892 31H141.8L149.906 11.19H151.334L159.44 31ZM146.182 23.804H155.058L151.012 13.794C150.947 13.6353 150.881 13.458 150.816 13.262C150.751 13.0567 150.685 12.842 150.62 12.618C150.555 12.842 150.489 13.0567 150.424 13.262C150.359 13.458 150.293 13.64 150.228 13.808L146.182 23.804ZM161.905 35.928V17.07H162.633C162.754 17.07 162.852 17.098 162.927 17.154C163.001 17.2007 163.043 17.2893 163.053 17.42L163.179 19.576C163.795 18.736 164.513 18.0687 165.335 17.574C166.165 17.0793 167.094 16.832 168.121 16.832C169.838 16.832 171.173 17.4247 172.125 18.61C173.077 19.7953 173.553 21.5733 173.553 23.944C173.553 24.9613 173.417 25.9133 173.147 26.8C172.885 27.6773 172.498 28.4427 171.985 29.096C171.471 29.74 170.837 30.2487 170.081 30.622C169.334 30.9953 168.471 31.182 167.491 31.182C166.539 31.182 165.717 31.0093 165.027 30.664C164.336 30.3187 163.739 29.8053 163.235 29.124V35.928H161.905ZM167.743 17.91C166.819 17.91 165.979 18.1527 165.223 18.638C164.476 19.114 163.813 19.7813 163.235 20.64V27.948C163.767 28.7507 164.355 29.3153 164.999 29.642C165.652 29.9687 166.394 30.132 167.225 30.132C168.046 30.132 168.765 29.9827 169.381 29.684C169.997 29.3853 170.51 28.9653 170.921 28.424C171.341 27.8733 171.653 27.22 171.859 26.464C172.073 25.6987 172.181 24.8587 172.181 23.944C172.181 21.872 171.798 20.3507 171.033 19.38C170.277 18.4 169.18 17.91 167.743 17.91ZM176.889 35.928V17.07H177.617C177.738 17.07 177.836 17.098 177.911 17.154C177.986 17.2007 178.028 17.2893 178.037 17.42L178.163 19.576C178.779 18.736 179.498 18.0687 180.319 17.574C181.15 17.0793 182.078 16.832 183.105 16.832C184.822 16.832 186.157 17.4247 187.109 18.61C188.061 19.7953 188.537 21.5733 188.537 23.944C188.537 24.9613 188.402 25.9133 188.131 26.8C187.87 27.6773 187.482 28.4427 186.969 29.096C186.456 29.74 185.821 30.2487 185.065 30.622C184.318 30.9953 183.455 31.182 182.475 31.182C181.523 31.182 180.702 31.0093 180.011 30.664C179.32 30.3187 178.723 29.8053 178.219 29.124V35.928H176.889ZM182.727 17.91C181.803 17.91 180.963 18.1527 180.207 18.638C179.46 19.114 178.798 19.7813 178.219 20.64V27.948C178.751 28.7507 179.339 29.3153 179.983 29.642C180.636 29.9687 181.378 30.132 182.209 30.132C183.03 30.132 183.749 29.9827 184.365 29.684C184.981 29.3853 185.494 28.9653 185.905 28.424C186.325 27.8733 186.638 27.22 186.843 26.464C187.058 25.6987 187.165 24.8587 187.165 23.944C187.165 21.872 186.782 20.3507 186.017 19.38C185.261 18.4 184.164 17.91 182.727 17.91Z" fill="#2C272E"/>
<mask id="mask0_97_2" style="mask-type:alpha" maskUnits="userSpaceOnUse" x="4" y="6" width="32" height="34">
<path fill-rule="evenodd" clip-rule="evenodd" d="M4.00006 6.08887H35.9563V39.0556H4.00006V6.08887Z" fill="white"/>
</mask>
<g mask="url(#mask0_97_2)">
<path fill-rule="evenodd" clip-rule="evenodd" d="M35.9564 8.23885L24.3615 30.7106L21.0914 29.2203L20.4964 39.0555L4.14477 24.5709C4.14477 24.5709 2.24219 13.0072 12.2315 7.82142C22.2211 2.63564 30.1292 10.7422 30.1292 10.7422L35.9564 8.23885Z" fill="white"/>
</g>
<mask id="mask1_97_2" style="mask-type:alpha" maskUnits="userSpaceOnUse" x="4" y="7" width="17" height="32">
<path fill-rule="evenodd" clip-rule="evenodd" d="M4.00006 7.00488H20.8866V38.9998H4.00006V7.00488Z" fill="white"/>
</mask>
<g mask="url(#mask1_97_2)">
<path opacity="0.0812174" fill-rule="evenodd" clip-rule="evenodd" d="M20.8866 38.9998L4.14819 24.8043C4.14819 24.8043 2.20065 13.4706 12.4259 8.38821C13.7851 7.71287 15.1057 7.26953 16.3753 7.00488C15.7028 7.19591 0.167706 11.96 20.8866 38.9998" fill="#121212"/>
</g>
</svg>
